<svg id="Capa_1" data-name="Capa 1" xmlns="http://www.w3.org/2000/svg" viewBox="0 0 289 110.09524"><defs><style>.cls-1{fill:none;}.cls-2{fill:#e4002b;}.cls-2,.cls-4{fill-rule:evenodd;}.cls-3{fill:#282828;}.cls-4{fill:#e8112d;}.cls-5{fill:#1d1d1b;}</style></defs><g id="Capa_2" data-name="Capa 2"><g id="Capa_1-2" data-name="Capa 1-2"><rect class="cls-1" width="289" height="110.09524"/><path class="cls-2" d="M44.889,6.73587v5.50476q-3.44049,1.96794-6.881,3.93285L21.49374,25.60957v4.52155q5.50476-3.14461,11.00952-6.29073v5.50477L15.989,38.78123V49.988H7.73183V27.969L38.008,10.66872Z" transform="translate(14.28723 16.0689)"/><path class="cls-2" d="M82.04612,27.969V49.988H73.789V38.78123L57.27469,29.34515V23.84039q5.50476,3.14688,11.00952,6.29072V25.60956l-16.51428-9.4361q-3.44047-1.96564-6.881-3.93284V6.73586l6.881,3.93284Z" transform="translate(14.28723 16.0689)"/><path class="cls-2" d="M57.27469,43.69653v6.2907H32.50326v-6.2907q6.19286-3.53912,12.38572-7.07668Q51.08184,40.159,57.27469,43.69653Z" transform="translate(14.28723 16.0689)"/><path class="cls-3" d="M102.51525,27.969H93.05564V49.988h4.84852V43.37919H102.052c4.94116,0,8.89409-2.625,8.89409-7.72057v-.06177C110.9461,31.08806,107.76523,27.969,102.51525,27.969Zm-4.6111,4.38528h4.20962c2.40881,0,3.922,1.17353,3.922,3.33528v.06177c0,1.88381-1.42057,3.33528-3.8294,3.33528H97.90414V32.35425Z" transform="translate(14.28723 16.0689)"/><path class="cls-3" d="M129.51167,42.124a6.85261,6.85261,0,0,0,4.71844-6.8155v-.06168c0-4.53339-3.11477-7.24726-8.2958-7.24726H115.31619V49.988H120.158V42.95662h4.35775l4.71844,7.03138h5.64362ZM120.158,32.34789h5.37544c2.34378,0,3.79325,1.07937,3.79325,3.14562v.06168c0,1.85037-1.35693,3.11478-3.70073,3.11478h-5.468Z" transform="translate(14.28723 16.0689)"/><path class="cls-3" d="M148.67772,27.969a11.00168,11.00168,0,0,0-11.34249,11.00619v.06115a11.31711,11.31711,0,0,0,22.62384-.06115V38.914A10.9182,10.9182,0,0,0,148.67772,27.969Zm0,17.73221a6.488,6.488,0,0,1-6.45085-6.69545v-.06115a6.3682,6.3682,0,0,1,6.38972-6.63429,6.488,6.488,0,0,1,6.45085,6.69544v.06115A6.38611,6.38611,0,0,1,148.67772,45.70117Z" transform="translate(14.28723 16.0689)"/><path class="cls-3" d="M183.173,46.2209a10.8558,10.8558,0,0,1-8.7438,3.791h-.18343a10.77955,10.77955,0,0,1-10.7616-10.57816v-.428a10.8245,10.8245,0,0,1,10.63934-11.00619h.4586a11.11609,11.11609,0,0,1,8.40752,3.27129L179.99348,34.695a7.8283,7.8283,0,0,0-5.442-2.41526c-3.60761,0-6.17568,2.99613-6.17568,6.6343v.06115c0,3.66873,2.53755,6.69544,6.17568,6.69544,2.44582,0,3.91334-.97833,5.59483-2.507Z" transform="translate(14.28723 16.0689)"/><path class="cls-3" d="M199.30215,27.969H194.8554l-9.3535,22.019h4.90675l1.99337-4.90675h9.23083l1.99337,4.90675h5.02944Zm-5.18276,12.88022,2.91339-7.08411,2.91339,7.08411Z" transform="translate(14.28723 16.0689)"/><path class="cls-3" d="M227.23421,43.30735v.06123c0,4.25544-3.2451,6.64336-7.868,6.64336H219.305a12.54483,12.54483,0,0,1-8.58506-3.42885l2.30907-3.337a9.83137,9.83137,0,0,0,6.39855,2.60224c1.92864,0,3.0921-.76537,3.0921-2.02055v-.06124c0-1.194-.73489-1.80627-4.31674-2.72469-2.04958-.52551-4.88945-1.29277-6.24953-3.2505a5.57285,5.57285,0,0,1-.88257-3.37046,6.33879,6.33879,0,0,1,.84472-3.14047c1.964-3.334,6.41791-3.31621,6.68533-3.311h.21436a12.40108,12.40108,0,0,1,7.77607,2.72469l-2.44916,3.55131a10.05553,10.05553,0,0,0-5.57186-2.1124c-1.80625,0-2.75518.82658-2.75518,1.86747v.06121c0,1.40826.91834,1.86751,4.62276,2.81657C224.78506,38.011,227.23421,39.57236,227.23421,43.30735Z" transform="translate(14.28723 16.0689)"/><path class="cls-3" d="M243.34024,27.969h-4.44675L229.54,49.988h4.90674l1.99338-4.90675h9.23082l1.99338,4.90675h5.02944ZM238.1575,40.84918l2.91339-7.08411,2.9134,7.08411Z" transform="translate(14.28723 16.0689)"/><path class="cls-4" d="M9.12977,66.50229H7.73183V60.99753H9.12977q.78646,1.37619,1.57259,2.75238Q9.9159,65.1261,9.12977,66.50229Z" transform="translate(14.28723 16.0689)"/><path class="cls-4" d="M251.2958,60.99753h1.39794v5.50476H251.2958q-.78645-1.37619-1.57259-2.75238Q250.50966,62.37372,251.2958,60.99753Z" transform="translate(14.28723 16.0689)"/><path class="cls-5" d="M18.85706,65.94741a2.685,2.685,0,0,1-.49424.29273,2.88692,2.88692,0,0,1-.56848.1909,3.07657,3.07657,0,0,1-.67666.06788,2.74637,2.74637,0,0,1-1.0903-.21318,2.67479,2.67479,0,0,1-.86332-.58122,2.63792,2.63792,0,0,1-.57167-.87074,2.89962,2.89962,0,0,1,0-2.15089,2.71516,2.71516,0,0,1,.57167-.87817,2.65245,2.65245,0,0,1,.87181-.59288,2.76209,2.76209,0,0,1,1.10514-.21742,3.42012,3.42012,0,0,1,.67348.06151,2.83446,2.83446,0,0,1,.55575.17076,2.492,2.492,0,0,1,.47515.26621,4.12606,4.12606,0,0,1,.42.34576l-.42.44121a3.42613,3.42613,0,0,0-.75091-.525,2.27487,2.27487,0,0,0-1.79771-.03818,2.0338,2.0338,0,0,0-.66923.46454,2.13518,2.13518,0,0,0-.44439.69469,2.43066,2.43066,0,0,0,0,1.72983,2.12579,2.12579,0,0,0,.44439.7,2.07159,2.07159,0,0,0,.66923.46666,2.02988,2.02988,0,0,0,.83681.17182,2.156,2.156,0,0,0,.96515-.20152,3.395,3.395,0,0,0,.79332-.56635l.40515.38712A3.80106,3.80106,0,0,1,18.85706,65.94741Z" transform="translate(14.28723 16.0689)"/><path class="cls-5" d="M29.68786,64.79243a2.74014,2.74014,0,0,1-.56848.87818,2.70731,2.70731,0,0,1-.87923.60454,3.00641,3.00641,0,0,1-2.26861.00318,2.68067,2.68067,0,0,1-.876-.59712,2.64226,2.64226,0,0,1-.56424-.87393,2.813,2.813,0,0,1-.19833-1.05317A2.77316,2.77316,0,0,1,24.5355,62.702a2.74018,2.74018,0,0,1,.56847-.87817,2.69622,2.69622,0,0,1,.87924-.60454,2.99985,2.99985,0,0,1,2.26861-.00424,2.70881,2.70881,0,0,1,.87606.59711,2.64252,2.64252,0,0,1,.56424.87393,2.834,2.834,0,0,1,.19833,1.05317A2.77482,2.77482,0,0,1,29.68786,64.79243Zm-.595-1.8974a2.11174,2.11174,0,0,0-.44757-.69893,2.15518,2.15518,0,0,0-.68091-.47091,2.09626,2.09626,0,0,0-.86014-.175,2.122,2.122,0,0,0-.86015.17076,2.01035,2.01035,0,0,0-.67348.46772,2.17185,2.17185,0,0,0-.44015.69575,2.28563,2.28563,0,0,0-.15908.85484,2.31579,2.31579,0,0,0,.15908.85908,2.09535,2.09535,0,0,0,.44757.69893,2.15815,2.15815,0,0,0,.68091.472,2.09273,2.09273,0,0,0,.86014.175,2.12237,2.12237,0,0,0,.86015-.17182,2.02321,2.02321,0,0,0,.67348-.46666,2.20154,2.20154,0,0,0,.44014-.69575,2.29094,2.29094,0,0,0,.15909-.8559,2.32367,2.32367,0,0,0-.15908-.85909Z" transform="translate(14.28723 16.0689)"/><path class="cls-5" d="M39.55672,61.08564H40.156v5.32207h-.49l-3.518-4.36329v4.36329h-.59924V61.08564h.57591l3.43209,4.26572Z" transform="translate(14.28723 16.0689)"/><path class="cls-5" d="M46.59271,62.7529a.67724.67724,0,0,0,.22591.27788,1.6283,1.6283,0,0,0,.45076.228,5.38688,5.38688,0,0,0,.74029.19409,3.26193,3.26193,0,0,1,1.34165.54833,1.177,1.177,0,0,1,.43273.96727,1.39941,1.39941,0,0,1-.13894.62468,1.42128,1.42128,0,0,1-.38076.4794,1.7421,1.7421,0,0,1-.58544.30439,2.51252,2.51252,0,0,1-.74773.10712,3.31715,3.31715,0,0,1-1.19422-.20682,3.39636,3.39636,0,0,1-1.032-.63741l.38181-.44122a3.21206,3.21206,0,0,0,.86333.56636,2.53975,2.53975,0,0,0,1.00439.18667,1.42536,1.42536,0,0,0,.88348-.25136.79214.79214,0,0,0,.3309-.66288.8707.8707,0,0,0-.06258-.33833.688.688,0,0,0-.21848-.27045,1.57189,1.57189,0,0,0-.43273-.2206,5.76762,5.76762,0,0,0-.70635-.1909,5.8421,5.8421,0,0,1-.8156-.228,2.02427,2.02427,0,0,1-.57272-.31182,1.15052,1.15052,0,0,1-.33621-.42636,1.41741,1.41741,0,0,1-.10924-.57909,1.305,1.305,0,0,1,.13257-.58651,1.37617,1.37617,0,0,1,.37333-.4603,1.83468,1.83468,0,0,1,.56848-.30439,2.21271,2.21271,0,0,1,.7159-.1103,3.06678,3.06678,0,0,1,1.04681.16121,3.183,3.183,0,0,1,.86863.4847l-.35848.46348a2.6817,2.6817,0,0,0-.76681-.44015,2.36088,2.36088,0,0,0-.805-.13788,1.57128,1.57128,0,0,0-.47939.06894,1.25648,1.25648,0,0,0-.36591.18242.80216.80216,0,0,0-.23333.27469.74486.74486,0,0,0-.08167.34258A.90038.90038,0,0,0,46.59271,62.7529Z" transform="translate(14.28723 16.0689)"/><path class="cls-5" d="M57.33443,66.40771h-.61514V61.6414H54.89082v-.55576H59.164v.55576H57.33443Z" transform="translate(14.28723 16.0689)"/><path class="cls-5" d="M68.43358,66.40771l-1.58029-2.06816h-1.557v2.06816h-.61409V61.08564h2.3418a2.68705,2.68705,0,0,1,.81348.11455,1.84682,1.84682,0,0,1,.61939.32348,1.44394,1.44394,0,0,1,.39666.50166,1.48968,1.48968,0,0,1,.14.65015,1.53324,1.53324,0,0,1-.10924.59712,1.3652,1.3652,0,0,1-.30651.45711,1.74612,1.74612,0,0,1-.47091.32243,2.19867,2.19867,0,0,1-.59181.18242l1.67362,2.17315Zm-.42106-4.48844a1.67589,1.67589,0,0,0-1.0309-.27788H65.29634v2.16679H66.9742a1.97318,1.97318,0,0,0,.56212-.07636,1.40115,1.40115,0,0,0,.4444-.21742.99466.99466,0,0,0,.29272-.34787,1.00655,1.00655,0,0,0,.105-.4656.926.926,0,0,0-.36593-.78166Z" transform="translate(14.28723 16.0689)"/><path class="cls-5" d="M79.11908,64.13485a2.93541,2.93541,0,0,1-.16333,1.0256,1.99233,1.99233,0,0,1-.46348.73818,1.91355,1.91355,0,0,1-.7159.44439,2.76035,2.76035,0,0,1-.93015.14848,2.7317,2.7317,0,0,1-.92166-.14848,1.93383,1.93383,0,0,1-.71589-.44121,1.9657,1.9657,0,0,1-.46348-.72544,2.80967,2.80967,0,0,1-.16334-.99591V61.08564H75.197v3.05664a1.85928,1.85928,0,0,0,.43908,1.33,1.60887,1.60887,0,0,0,1.22606.46454,1.62528,1.62528,0,0,0,1.19847-.44121,1.77579,1.77579,0,0,0,.44333-1.31515V61.08564h.61515Z" transform="translate(14.28723 16.0689)"/><path class="cls-5" d="M89.164,65.94741a2.6851,2.6851,0,0,1-.49425.29273,2.88726,2.88726,0,0,1-.56847.1909,3.07669,3.07669,0,0,1-.67666.06788,2.74634,2.74634,0,0,1-1.0903-.21318,2.67483,2.67483,0,0,1-.86333-.58122,2.63815,2.63815,0,0,1-.57166-.87074,2.89952,2.89952,0,0,1,0-2.15089,2.7153,2.7153,0,0,1,.57166-.87817,2.65266,2.65266,0,0,1,.87181-.59288,2.7622,2.7622,0,0,1,1.10515-.21742,3.42012,3.42012,0,0,1,.67348.06151,2.83446,2.83446,0,0,1,.55575.17076,2.49174,2.49174,0,0,1,.47515.26621,4.12617,4.12617,0,0,1,.42.34576l-.42.44121a3.42613,3.42613,0,0,0-.75091-.525,2.27487,2.27487,0,0,0-1.79771-.03818,2.0338,2.0338,0,0,0-.66923.46454,2.13537,2.13537,0,0,0-.4444.69469,2.43077,2.43077,0,0,0,0,1.72983,2.12581,2.12581,0,0,0,.4444.7,2.07138,2.07138,0,0,0,.66923.46666,2.02989,2.02989,0,0,0,.83682.17182,2.156,2.156,0,0,0,.96514-.20152,3.39532,3.39532,0,0,0,.79332-.56635l.40515.38712A3.80106,3.80106,0,0,1,89.164,65.94741Z" transform="translate(14.28723 16.0689)"/><path class="cls-5" d="M97.09089,66.40771h-.61515V61.6414H94.64727v-.55576h4.27314v.55576H97.09089Z" transform="translate(14.28723 16.0689)"/><path class="cls-5" d="M109.17851,64.79243a2.74031,2.74031,0,0,1-.56848.87818,2.70731,2.70731,0,0,1-.87923.60454,3.00641,3.00641,0,0,1-2.26861.00318,2.68051,2.68051,0,0,1-.87605-.59712,2.64226,2.64226,0,0,1-.56424-.87393,2.81259,2.81259,0,0,1-.19833-1.05317,2.773,2.773,0,0,1,.20257-1.05212,2.74018,2.74018,0,0,1,.56847-.87817,2.69628,2.69628,0,0,1,.87923-.60454,2.99988,2.99988,0,0,1,2.26862-.00424,2.70866,2.70866,0,0,1,.87605.59711,2.64236,2.64236,0,0,1,.56424.87393,2.834,2.834,0,0,1,.19833,1.05317A2.7748,2.7748,0,0,1,109.17851,64.79243Zm-.595-1.8974a2.11206,2.11206,0,0,0-.44757-.69893,2.1553,2.1553,0,0,0-.68091-.47091,2.09634,2.09634,0,0,0-.86015-.175,2.122,2.122,0,0,0-.86015.17076,2.01055,2.01055,0,0,0-.67348.46772,2.17182,2.17182,0,0,0-.44014.69575,2.28544,2.28544,0,0,0-.15909.85484,2.31541,2.31541,0,0,0,.1591.85908,2.09516,2.09516,0,0,0,.44756.69893,2.15815,2.15815,0,0,0,.68091.472,2.09277,2.09277,0,0,0,.86015.175,2.12237,2.12237,0,0,0,.86015-.17182,2.02321,2.02321,0,0,0,.67348-.46666,2.20174,2.20174,0,0,0,.44015-.69575,2.29113,2.29113,0,0,0,.15908-.8559,2.32364,2.32364,0,0,0-.15909-.85909Z" transform="translate(14.28723 16.0689)"/><path class="cls-5" d="M118.79176,66.40771l-1.5803-2.06816h-1.557v2.06816h-.61408V61.08564h2.3418a2.68705,2.68705,0,0,1,.81348.11455,1.84718,1.84718,0,0,1,.61939.32348,1.444,1.444,0,0,1,.39666.50166,1.48968,1.48968,0,0,1,.14.65015,1.53307,1.53307,0,0,1-.10925.59712,1.365,1.365,0,0,1-.30651.45711,1.74607,1.74607,0,0,1-.4709.32243,2.19907,2.19907,0,0,1-.5918.18242l1.67362,2.17315Zm-.42106-4.48844a1.67589,1.67589,0,0,0-1.0309-.27788h-1.6853v2.16679h1.67787a1.97322,1.97322,0,0,0,.56212-.07636,1.40125,1.40125,0,0,0,.4444-.21742.99466.99466,0,0,0,.29272-.34787,1.00667,1.00667,0,0,0,.105-.4656.926.926,0,0,0-.36592-.78166Z" transform="translate(14.28723 16.0689)"/><path class="cls-5" d="M130.09983,66.40771h-.66075l-.63848-1.40635h-2.96543l-.6459,1.40635h-.63106l2.48286-5.35919h.5759Zm-2.77876-4.65283-1.24514,2.71406h2.48285Z" transform="translate(14.28723 16.0689)"/><path class="cls-5" d="M142.897,61.08564v5.32207h-.61515V61.08564Z" transform="translate(14.28723 16.0689)"/><path class="cls-5" d="M152.85917,61.08564h.59923v5.32207h-.49l-3.518-4.36329v4.36329h-.59923V61.08564h.5759l3.43209,4.26572Z" transform="translate(14.28723 16.0689)"/><path class="cls-5" d="M161.97287,64.94834h-.03076l-1.98436-2.84346v4.30283h-.59923V61.08564h.62258l1.98438,2.905,1.98437-2.905h.62258v5.32207h-.61408V62.09745Z" transform="translate(14.28723 16.0689)"/><path class="cls-5" d="M175.58563,64.79243a2.74031,2.74031,0,0,1-.56848.87818,2.70735,2.70735,0,0,1-.87924.60454,3.00644,3.00644,0,0,1-2.26862.00318,2.68076,2.68076,0,0,1-.87606-.59712,2.6422,2.6422,0,0,1-.56422-.87393,2.81263,2.81263,0,0,1-.19833-1.05317,2.77335,2.77335,0,0,1,.20258-1.05212,2.74041,2.74041,0,0,1,.56849-.87817,2.69628,2.69628,0,0,1,.87923-.60454,2.99988,2.99988,0,0,1,2.26862-.00424,2.70881,2.70881,0,0,1,.87606.59711,2.64233,2.64233,0,0,1,.56423.87393,2.83383,2.83383,0,0,1,.19832,1.05317A2.77443,2.77443,0,0,1,175.58563,64.79243Zm-.595-1.8974a2.11143,2.11143,0,0,0-.44757-.69893,2.155,2.155,0,0,0-.6809-.47091,2.09629,2.09629,0,0,0-.86014-.175,2.122,2.122,0,0,0-.86014.17076,2.01025,2.01025,0,0,0-.67348.46772,2.17148,2.17148,0,0,0-.44014.69575,2.28584,2.28584,0,0,0-.15909.85484,2.3154,2.3154,0,0,0,.15909.85908,2.095,2.095,0,0,0,.44757.69893,2.15837,2.15837,0,0,0,.68091.472,2.09273,2.09273,0,0,0,.86014.175,2.12224,2.12224,0,0,0,.86013-.17182,2.02311,2.02311,0,0,0,.67348-.46666,2.20136,2.20136,0,0,0,.44014-.69575,2.29094,2.29094,0,0,0,.15909-.8559,2.32348,2.32348,0,0,0-.15909-.85909Z" transform="translate(14.28723 16.0689)"/><path class="cls-5" d="M184.49251,61.1811a1.76382,1.76382,0,0,1,.55893.26621,1.15266,1.15266,0,0,1,.35741.41788,1.21137,1.21137,0,0,1,.12409.55151,1.3326,1.3326,0,0,1-.07319.46348,1.25486,1.25486,0,0,1-.19832.35,1.32442,1.32442,0,0,1-.27575.25454,1.84629,1.84629,0,0,1-.31394.17076,2.3938,2.3938,0,0,1,.45393.17924,1.49019,1.49019,0,0,1,.36908.262,1.15441,1.15441,0,0,1,.24925.36484,1.2153,1.2153,0,0,1,.09333.48682,1.32977,1.32977,0,0,1-.14.61515,1.27178,1.27178,0,0,1-.4009.46029,1.92558,1.92558,0,0,1-.62469.2853,3.10161,3.10161,0,0,1-.80817.09863h-2.416V61.08564h2.31422A2.60051,2.60051,0,0,1,184.49251,61.1811Zm.07636,2.03316a.82117.82117,0,0,0,.35-.718.76594.76594,0,0,0-.31075-.64166,1.45637,1.45637,0,0,0-.893-.23651h-1.65347v1.84013h1.60681A1.53866,1.53866,0,0,0,184.56887,63.21426Zm.29591,2.40967a.81917.81917,0,0,0,.35741-.71059.77183.77183,0,0,0-.36484-.683,1.97717,1.97717,0,0,0-1.07968-.2397h-1.716V65.8753h1.82529A1.675,1.675,0,0,0,184.86478,65.62393Z" transform="translate(14.28723 16.0689)"/><path class="cls-5" d="M192.09488,61.08564v5.32207h-.61515V61.08564Z" transform="translate(14.28723 16.0689)"/><path class="cls-5" d="M198.04906,61.08564h.61408V65.853h3.06726v.55469h-3.68134Z" transform="translate(14.28723 16.0689)"/><path class="cls-5" d="M207.89458,61.08564v5.32207h-.61515V61.08564Z" transform="translate(14.28723 16.0689)"/><path class="cls-5" d="M218.92266,66.40771h-.66075l-.63848-1.40635H214.658l-.64591,1.40635H213.381l2.48285-5.35919h.5759Zm-2.77876-4.65284-1.24513,2.71407h2.48284Z" transform="translate(14.28723 16.0689)"/><path class="cls-5" d="M228.10742,66.40771l-1.58029-2.06816h-1.557v2.06816h-.61408V61.08564h2.34179a2.687,2.687,0,0,1,.81347.11455,1.84728,1.84728,0,0,1,.61939.32348,1.4442,1.4442,0,0,1,.39667.50166,1.48966,1.48966,0,0,1,.14.65015,1.53323,1.53323,0,0,1-.10923.59712,1.3649,1.3649,0,0,1-.30651.45711,1.74607,1.74607,0,0,1-.4709.32243,2.199,2.199,0,0,1-.59182.18242l1.67363,2.17315Zm-.42107-4.48844a1.67586,1.67586,0,0,0-1.03089-.27788h-1.68529v2.16679H226.648a1.97318,1.97318,0,0,0,.56212-.07636,1.401,1.401,0,0,0,.4444-.21742.99463.99463,0,0,0,.29271-.34787,1.00642,1.00642,0,0,0,.105-.4656.926.926,0,0,0-.36589-.78166Z" transform="translate(14.28723 16.0689)"/><path class="cls-5" d="M235.01191,61.08564v5.32207h-.61515V61.08564Z" transform="translate(14.28723 16.0689)"/><path class="cls-5" d="M246.04,66.40771h-.66075l-.63848-1.40635h-2.96543l-.64591,1.40635h-.63105l2.48284-5.35919h.5759Zm-2.77875-4.65284-1.24514,2.71407h2.48285Z" transform="translate(14.28723 16.0689)"/></g></g></svg>